<?xml version="1.0" standalone="no"?>
<!DOCTYPE svg PUBLIC "-//W3C//DTD SVG 20010904//EN"
 "http://www.w3.org/TR/2001/REC-SVG-20010904/DTD/svg10.dtd">
<svg version="1.0" xmlns="http://www.w3.org/2000/svg"
 width="320.000000pt" height="320.000000pt" viewBox="0 0 320.000000 320.000000"
 preserveAspectRatio="xMidYMid meet">
<metadata>
Created by potrace 1.14, written by Peter Selinger 2001-2017
</metadata>
<g transform="translate(0.000000,320.000000) scale(0.100000,-0.100000)"
fill="#000000" stroke="none">
<path d="M1513 2866 c-103 -34 -167 -90 -211 -185 -22 -47 -25 -70 -27 -190
l-3 -136 -54 -5 -53 -5 -3 -230 c-1 -126 0 -239 2 -250 3 -11 31 -35 63 -54
56 -32 62 -33 156 -32 54 1 109 6 124 12 23 9 25 13 19 52 l-6 42 92 -1 c87 0
96 -2 142 -32 54 -35 73 -37 209 -26 l77 7 0 31 c0 17 -23 101 -51 186 l-51
155 -8 211 c-7 200 -8 213 -35 272 -32 72 -94 133 -163 163 -60 26 -164 33
-219 15z m75 -85 c17 -55 15 -69 -13 -103 -40 -47 -29 -122 21 -149 13 -7 24
-21 24 -31 0 -16 -9 -18 -71 -18 -78 0 -202 25 -217 43 -16 19 4 123 32 171
39 66 126 125 187 126 21 0 28 -7 37 -39z m162 0 c25 -14 59 -48 77 -74 35
-52 61 -152 46 -176 -10 -16 -59 -35 -116 -44 -42 -7 -60 12 -38 42 6 9 18 31
27 50 18 39 7 86 -28 112 -18 14 -58 98 -58 122 0 13 40 -2 90 -32z m-48 -118
c26 -23 24 -78 -4 -97 -32 -22 -55 -20 -83 9 -30 29 -32 58 -5 85 24 24 67 26
92 3z m-194 -203 c106 -11 205 -6 293 16 74 18 85 18 70 0 -47 -56 -420 -62
-524 -9 -41 21 -24 33 23 17 23 -8 85 -19 138 -24z m12 -48 l95 -7 3 -42 3
-43 -66 0 c-63 0 -66 -1 -63 -22 3 -21 9 -23 66 -26 52 -2 63 -6 60 -19 -2
-14 -14 -16 -66 -14 -61 2 -62 2 -62 -23 0 -14 4 -26 10 -26 5 0 7 6 4 14 -4
10 22 14 128 19 73 3 141 8 151 12 12 5 17 2 17 -8 0 -8 -6 -18 -12 -20 -8 -3
-6 -6 5 -6 12 -1 17 7 17 25 0 25 -1 26 -50 19 -41 -6 -50 -4 -50 8 0 9 6 18
13 20 6 3 -41 6 -105 6 -98 1 -118 4 -118 16 0 12 19 15 113 15 61 0 130 3
151 7 34 5 38 4 33 -10 -4 -10 -2 -17 3 -17 6 0 10 11 10 25 0 24 -2 26 -37
19 -21 -3 -42 -7 -48 -8 -5 0 -11 17 -13 40 l-3 41 81 19 c44 11 83 18 85 15
3 -2 5 -62 5 -131 l0 -128 -27 -11 c-52 -20 -126 -32 -136 -22 -15 15 -1 39
25 44 13 2 3 3 -21 1 -24 -2 -80 -5 -125 -6 -61 -1 -68 -3 -28 -5 44 -3 52 -7
52 -24 0 -17 -7 -19 -72 -19 -113 0 -111 -2 -144 108 -25 83 -32 97 -54 102
-20 5 -25 13 -27 40 -3 58 0 60 54 44 26 -8 91 -18 143 -22z m-287 -287 c36
-145 46 -204 41 -234 -5 -32 -3 -42 10 -47 16 -6 23 -44 8 -44 -4 0 -32 15
-62 33 l-55 32 -3 228 c-1 125 1 227 6 227 4 0 29 -88 55 -195z m637 8 c0 -29
-57 -120 -89 -142 -35 -25 -96 -52 -103 -46 -3 3 3 29 13 58 10 28 18 66 19
84 0 29 3 33 38 38 20 4 48 10 62 15 41 14 60 11 60 -7z m-257 -23 c9 -8 -7
-114 -24 -157 -8 -21 -13 -24 -42 -18 -17 4 -37 12 -44 19 -11 11 -53 137 -53
160 0 13 149 10 163 -4z m203 -227 c8 -51 0 -53 -57 -17 l-41 26 38 23 c22 13
42 21 46 17 4 -4 10 -26 14 -49z"/>
<path d="M1748 2283 c6 -2 18 -2 25 0 6 3 1 5 -13 5 -14 0 -19 -2 -12 -5z"/>
<path d="M1193 2045 c-7 -21 3 -95 15 -107 18 -18 32 2 32 43 0 62 -31 104
-47 64z"/>
<path d="M1332 1593 c-13 -2 -43 -23 -67 -46 -89 -86 -79 -208 21 -277 41 -27
113 -37 154 -20 23 10 33 10 45 0 8 -6 23 -9 35 -5 18 6 20 14 20 101 l0 94
-80 0 -80 0 0 -29 c0 -30 19 -45 45 -35 8 4 22 0 31 -7 13 -10 17 -10 25 2 12
19 11 32 -1 24 -5 -3 -7 0 -4 8 5 14 43 12 45 -2 4 -34 3 -61 -2 -61 -4 0 -6
-8 -5 -17 1 -13 -6 -18 -21 -17 -22 1 -31 -10 -15 -19 4 -2 1 -2 -6 0 -7 1
-22 -2 -33 -7 -13 -7 -19 -7 -19 0 0 5 7 10 15 10 14 0 35 29 35 49 0 6 -4 11
-10 11 -5 0 -9 -5 -7 -11 1 -7 -18 -13 -51 -16 -47 -4 -55 -2 -82 25 -47 48
-38 121 20 155 35 21 53 21 96 1 31 -15 36 -15 60 0 14 10 24 24 22 33 -7 35
-122 70 -186 56z m62 -323 c-7 -7 -17 -5 -30 6 -16 13 -16 15 -1 10 9 -3 17 0
17 6 0 9 3 9 12 0 8 -8 9 -15 2 -22z"/>
<path d="M2064 1590 c-103 -24 -168 -156 -121 -246 20 -38 65 -80 100 -93 84
-32 191 10 233 91 17 32 19 88 3 88 -8 0 -8 4 1 14 28 34 -46 126 -118 146
-41 11 -53 11 -98 0z m-26 -53 c7 -8 7 -18 2 -27 -7 -11 -10 -12 -10 -2 0 10
-3 10 -15 -2 -8 -8 -15 -23 -15 -32 0 -14 -3 -15 -12 -6 -15 15 -31 16 -22 0
4 -7 3 -8 -4 -4 -16 10 7 46 25 39 7 -3 13 0 13 6 0 6 -5 11 -11 11 -5 0 -7 5
-4 10 4 6 11 8 16 5 5 -4 9 -1 9 4 0 15 15 14 28 -2z m145 -57 c30 -33 33 -51
16 -99 -19 -53 -83 -75 -138 -46 -71 36 -59 148 19 178 29 12 75 -3 103 -33z
m-185 -82 c7 -7 12 -20 12 -29 0 -9 7 -20 16 -23 13 -5 14 -9 4 -21 -12 -14
-7 -20 15 -15 6 1 6 -2 2 -7 -19 -19 -55 -8 -76 22 -18 27 -19 35 -8 58 14 30
18 32 35 15z"/>
<path d="M330 1568 c-92 -221 -126 -318 -113 -323 34 -12 62 -4 83 25 19 27
26 30 78 30 63 0 74 -5 91 -38 10 -19 19 -23 49 -20 48 4 48 8 -29 196 l-62
152 -44 0 c-36 0 -45 -4 -53 -22z m40 -81 c0 -7 20 -26 45 -41 25 -16 45 -33
45 -38 0 -5 10 -22 21 -38 28 -37 20 -61 -18 -56 -54 8 -78 16 -81 26 -2 6
-13 19 -24 30 -18 17 -19 20 -3 49 11 23 13 36 5 50 -13 25 -13 31 0 31 6 0
10 -6 10 -13z m-20 -14 c0 -5 -5 -15 -10 -23 -8 -12 -10 -11 -10 8 0 12 5 22
10 22 6 0 10 -3 10 -7z m90 -24 c0 -6 -4 -7 -10 -4 -5 3 -10 11 -10 16 0 6 5
7 10 4 6 -3 10 -11 10 -16z m-96 -78 c17 -18 24 -31 17 -35 -6 -4 -15 -5 -20
-1 -5 3 -12 1 -16 -5 -3 -5 -11 -10 -16 -10 -14 0 -7 33 11 48 13 12 12 13 -7
9 -15 -3 -20 -1 -16 9 8 20 16 18 47 -15z"/>
<path d="M600 1541 c0 -27 5 -53 12 -57 6 -4 8 -3 4 4 -9 15 35 59 55 55 11
-3 15 3 14 19 -1 19 -8 23 -43 26 l-42 3 0 -50z"/>
<path d="M750 1588 c-7 -54 -2 -332 5 -338 6 -4 24 -5 42 -3 29 5 32 8 35 47
4 60 34 61 79 4 18 -24 33 -44 34 -45 3 -6 95 -11 95 -5 0 4 -13 27 -30 52
l-29 44 25 27 c50 52 49 142 -2 190 -23 22 -35 24 -140 27 -63 2 -114 2 -114
0z m60 -78 c0 -5 -5 -10 -11 -10 -5 0 -7 5 -4 10 3 6 8 10 11 10 2 0 4 -4 4
-10z m139 -5 c17 -10 19 -46 3 -65 -10 -11 -30 -21 -47 -21 -55 -2 -86 -11
-82 -23 2 -6 -2 -17 -10 -25 -13 -12 -14 -11 -8 10 4 13 11 28 16 34 5 5 9 28
9 51 0 25 5 44 13 47 14 6 94 0 106 -8z m36 -114 c-3 -12 -10 -19 -15 -16 -4
2 -10 -9 -13 -25 l-6 -29 -31 17 c-29 16 -38 50 -12 45 7 -2 12 2 12 8 0 6 7
9 15 5 8 -3 15 -1 15 5 0 6 7 9 15 5 8 -3 15 0 15 6 0 6 3 9 6 5 3 -3 3 -15
-1 -26z"/>
<path d="M1599 1588 c0 -1 -2 -76 -4 -165 -4 -177 -2 -184 52 -176 29 5 32 8
35 47 2 34 7 42 25 44 17 3 30 -8 54 -41 27 -39 37 -45 77 -51 25 -3 47 -4 50
-1 2 2 -10 27 -28 54 l-32 50 27 23 c51 45 51 140 -1 189 -23 22 -35 24 -140
27 -63 2 -114 2 -115 0z m61 -78 c0 -5 -5 -10 -11 -10 -5 0 -7 5 -4 10 3 6 8
10 11 10 2 0 4 -4 4 -10z m118 2 c11 -1 24 -13 30 -26 16 -36 -9 -66 -56 -66
-54 0 -84 -10 -78 -26 3 -8 1 -14 -4 -14 -13 0 -13 27 0 35 6 3 10 26 10 50 0
53 6 56 98 47z m62 -107 c0 -7 -7 -18 -16 -23 -9 -5 -15 -13 -15 -18 0 -5 -2
-17 -5 -26 -5 -15 -7 -15 -34 0 -17 9 -30 22 -30 29 0 14 39 38 47 29 3 -3 12
1 20 9 18 19 33 19 33 0z"/>
<path d="M2337 1584 c-4 -4 -7 -55 -7 -114 0 -126 21 -183 80 -213 46 -24 139
-19 178 10 47 34 57 67 60 201 l4 122 -41 0 -41 0 -1 -42 c0 -24 0 -74 0 -112
0 -59 -3 -71 -24 -92 -29 -29 -85 -33 -106 -8 -9 11 -16 56 -19 133 l-5 116
-35 3 c-20 2 -39 0 -43 -4z m278 -94 c-3 -5 0 -18 6 -28 14 -23 5 -85 -15
-101 -21 -17 -30 4 -10 23 8 9 11 16 6 16 -14 0 -20 72 -8 87 13 14 30 17 21
3z"/>
<path d="M2708 1580 c-1 -5 -1 -83 2 -172 l5 -162 35 0 c33 0 35 2 40 40 l5
39 68 6 c79 7 109 29 125 90 17 66 -10 133 -63 155 -39 16 -211 20 -217 4z
m126 -43 c-21 -12 -29 -2 -13 16 10 11 16 12 21 4 4 -7 0 -16 -8 -20z m-44 8
c10 -12 10 -15 -4 -15 -9 0 -16 7 -16 15 0 8 2 15 4 15 2 0 9 -7 16 -15z m104
-47 c21 -30 20 -54 -4 -78 -22 -22 -84 -27 -96 -8 -8 13 -6 87 3 100 2 5 22 8
43 8 29 0 43 -6 54 -22z m-114 -32 c0 -3 -7 -12 -16 -21 -13 -12 -13 -19 -4
-30 6 -8 9 -19 5 -25 -3 -5 0 -10 8 -10 17 0 19 -27 5 -57 -11 -21 -47 -33
-49 -15 0 4 -2 22 -5 40 -2 19 0 31 5 27 5 -3 13 0 17 6 4 8 3 9 -4 5 -15 -9
-15 4 -1 41 10 27 39 56 39 39z m83 -99 c-5 -8 -8 -8 -10 0 -3 7 -12 9 -21 6
-14 -4 -14 -3 -3 5 17 12 43 4 34 -11z"/>
<path d="M667 1524 c-8 -8 1 -24 14 -24 5 0 9 7 9 15 0 15 -12 20 -23 9z"/>
<path d="M630 1466 c0 -8 -4 -18 -10 -21 -6 -4 -7 1 -4 12 5 15 4 16 -5 3 -6
-8 -11 -58 -11 -111 l0 -97 35 -4 c20 -2 40 1 45 7 10 12 4 174 -6 184 -3 3
-12 -3 -20 -13 -12 -17 -14 -17 -14 -4 0 9 9 20 21 23 19 7 20 7 2 21 -23 17
-33 17 -33 0z"/>
<path d="M1857 1113 c-4 -3 -7 -16 -7 -27 1 -21 1 -21 15 -2 8 11 15 23 15 28
0 10 -14 11 -23 1z"/>
<path d="M2716 1104 c-8 -22 4 -40 15 -23 11 18 11 39 0 39 -5 0 -12 -7 -15
-16z"/>
<path d="M402 1035 c-39 -42 -68 -65 -82 -65 -18 0 -20 -3 -11 -14 6 -7 9 -20
5 -29 -11 -29 15 -27 36 3 28 39 70 42 67 6 -4 -51 16 -28 43 49 21 57 26 84
19 97 -5 10 -11 18 -13 18 -2 0 -30 -29 -64 -65z m43 -12 c-19 -45 -19 -46
-41 -41 -15 3 -13 9 15 41 18 20 35 37 37 37 2 0 -3 -17 -11 -37z"/>
<path d="M1701 1051 c-11 -27 -21 -54 -21 -59 0 -13 -40 -62 -51 -62 -5 0 -9
9 -9 20 0 13 7 20 20 20 25 0 40 48 19 61 -21 13 -32 6 -51 -31 -19 -37 -45
-66 -36 -40 30 89 31 90 68 91 27 1 29 3 10 6 -13 3 -30 12 -37 21 -12 16 -14
16 -24 0 -5 -10 -20 -19 -32 -19 -17 -1 -18 -2 -4 -6 22 -6 21 -18 -2 -68 -20
-42 -28 -35 -11 9 13 35 -8 46 -32 16 l-19 -24 6 27 c8 32 -9 37 -25 7 -17
-31 -25 -110 -11 -110 6 0 17 12 24 26 l12 27 5 -24 c5 -18 13 -24 38 -25 18
-1 35 2 38 7 3 5 16 1 30 -7 23 -15 26 -15 43 0 17 16 19 16 25 0 6 -16 9 -16
28 4 20 20 22 20 34 4 12 -16 14 -16 30 0 16 16 18 15 34 -5 l17 -21 17 32 c9
18 18 32 20 32 9 0 -3 -40 -17 -54 -13 -13 -15 -22 -7 -37 13 -23 38 -24 68
-3 27 18 28 31 4 58 -17 20 -17 22 9 49 l27 28 -5 -39 c-7 -49 17 -74 45 -49
15 13 21 14 31 4 10 -8 15 -9 18 -1 2 6 10 19 17 29 12 17 13 16 12 -6 -1 -18
4 -24 19 -24 11 0 26 -4 32 -8 8 -5 20 3 33 25 24 39 27 60 4 32 -15 -18 -15
-18 -10 8 15 67 25 80 57 76 16 -3 32 -1 35 4 3 4 12 8 20 8 12 0 12 -5 -2
-37 -28 -66 -37 -104 -25 -116 8 -8 14 -1 22 23 l12 33 27 -33 c35 -43 59 -32
27 12 -18 25 -19 32 -8 36 20 7 61 49 61 62 0 5 -9 19 -20 30 -25 25 -96 27
-129 3 -22 -15 -25 -15 -37 2 -13 17 -15 17 -31 3 -10 -9 -27 -18 -38 -21 -18
-4 -17 -5 3 -6 19 -1 22 -5 16 -23 -15 -49 -23 -66 -35 -74 -9 -5 -10 -2 -6
10 17 43 19 66 7 66 -7 0 -19 -8 -27 -17 -13 -17 -13 -17 -11 1 6 38 -20 25
-36 -19 -21 -53 -66 -87 -66 -50 0 9 11 20 24 24 30 12 41 40 22 60 -13 12
-19 13 -39 2 -20 -10 -29 -11 -48 -1 -20 11 -25 10 -41 -10 -10 -12 -18 -28
-18 -35 0 -7 -7 -18 -15 -25 -8 -7 -15 -10 -15 -6 0 4 7 23 15 43 18 43 18 43
1 43 -8 0 -19 -15 -26 -34 -11 -34 -50 -79 -50 -58 0 6 14 31 30 55 34 50 37
69 15 87 -13 10 -19 4 -40 -41 -14 -30 -25 -59 -25 -65 0 -14 -38 -49 -45 -42
-3 3 10 29 30 58 38 56 41 70 23 88 -19 19 -24 15 -47 -37z m626 2 c4 -10 -3
-24 -21 -40 -39 -33 -47 -29 -28 17 18 42 38 52 49 23z m-594 -8 c-3 -9 -8
-14 -10 -11 -3 3 -2 9 2 15 9 16 15 13 8 -4z m-91 -57 c-7 -7 -12 -8 -12 -2 0
14 12 26 19 19 2 -3 -1 -11 -7 -17z m260 -10 c-15 -15 -26 -4 -18 18 5 13 9
15 18 6 9 -9 9 -15 0 -24z m88 28 c0 -3 -4 -8 -10 -11 -5 -3 -10 -1 -10 4 0 6
5 11 10 11 6 0 10 -2 10 -4z m-104 -107 c3 -6 2 -15 -2 -19 -12 -12 -38 5 -30
19 9 14 23 14 32 0z"/>
<path d="M2465 1055 c-18 -45 -38 -58 -49 -30 -10 28 -37 15 -56 -27 -24 -53
-25 -72 -4 -89 14 -11 20 -10 40 14 13 16 24 37 24 48 0 10 4 19 9 19 5 0 7
-17 4 -39 -5 -33 -2 -39 18 -44 30 -8 37 -2 60 47 19 39 19 40 15 9 -6 -36 15
-66 39 -57 7 3 21 23 29 45 20 50 28 50 20 -1 -5 -32 -4 -40 9 -40 9 0 19 5
22 11 5 6 11 4 19 -6 11 -15 13 -16 25 -1 13 15 15 15 33 -1 17 -16 20 -16 35
0 15 15 19 15 33 2 14 -13 19 -13 36 -1 17 13 17 17 5 51 -10 29 -10 39 -1 48
10 9 11 7 5 -10 -7 -26 -3 -28 24 -11 18 11 18 12 1 31 -25 26 -53 18 -63 -20
-11 -36 -67 -97 -67 -71 0 24 21 78 31 78 4 0 6 -7 3 -15 -4 -8 -2 -15 4 -15
15 0 21 22 10 43 -15 30 -38 19 -59 -29 -24 -53 -37 -52 -19 1 7 20 10 39 7
42 -10 10 -25 -7 -32 -36 -3 -16 -13 -35 -21 -42 -17 -14 -17 -15 0 41 11 40
17 46 47 51 21 4 26 7 12 8 -12 0 -26 9 -32 18 -9 16 -11 16 -28 1 -10 -9 -27
-18 -38 -21 -17 -4 -17 -5 4 -6 17 -1 21 -5 17 -17 -3 -9 -6 -18 -6 -20 0 -11
-29 -2 -34 11 -7 20 -33 19 -45 -2 -9 -17 -10 -17 -28 0 -11 9 -23 14 -28 10
-7 -7 -6 -1 6 46 2 7 -1 15 -7 18 -7 2 -20 -16 -29 -42z m-74 -101 c-15 -34
-25 -25 -16 16 5 23 10 29 18 21 7 -7 7 -18 -2 -37z m185 1 c-4 -14 -11 -25
-16 -25 -13 0 -13 12 1 47 13 32 24 15 15 -22z m-92 3 c-10 -18 -19 -28 -21
-21 -5 15 15 53 28 53 5 0 2 -15 -7 -32z m326 -13 c0 -8 -4 -15 -10 -15 -5 0
-10 7 -10 15 0 8 5 15 10 15 6 0 10 -7 10 -15z"/>
<path d="M606 1075 c-3 -8 -16 -16 -28 -16 -17 -1 -18 -2 -5 -6 21 -6 21 -12
1 -63 -21 -52 -37 -52 -19 0 8 22 10 42 6 44 -12 8 -19 -2 -42 -53 -23 -53
-37 -49 -15 4 19 44 20 55 5 55 -5 0 -17 -16 -25 -35 -25 -61 -14 -126 16 -90
7 8 17 12 24 8 17 -11 65 -12 72 -1 3 5 14 2 25 -8 18 -16 20 -16 38 0 11 10
23 31 26 47 10 43 21 35 17 -11 -5 -46 13 -55 28 -15 5 14 12 25 16 25 3 0 4
-6 1 -14 -7 -18 18 -40 33 -31 6 4 18 1 27 -6 13 -11 19 -9 39 14 13 16 24 37
24 48 0 10 4 19 9 19 5 0 7 -18 4 -40 -7 -47 9 -53 32 -12 9 15 14 20 12 11
-6 -19 12 -50 19 -33 3 6 12 20 20 30 9 10 13 14 10 7 -9 -16 4 -43 20 -43 8
0 14 5 14 12 0 6 9 3 20 -7 19 -17 21 -17 39 -1 11 10 23 31 26 47 9 38 23 37
17 -1 -2 -16 -1 -38 3 -47 6 -17 7 -17 22 2 11 14 17 16 20 8 6 -16 33 -17 33
-1 0 6 7 5 18 -5 16 -15 21 -15 38 -3 17 13 17 17 5 51 -10 29 -10 39 -1 48
10 9 11 7 5 -10 -7 -26 -3 -28 24 -11 18 11 18 12 1 31 -27 29 -51 18 -68 -30
-7 -24 -18 -43 -22 -43 -5 0 -3 18 5 40 9 26 10 42 4 46 -13 8 -12 9 -38 -50
-26 -59 -37 -56 -16 4 8 23 15 44 15 46 0 11 -25 2 -36 -13 -13 -17 -15 -17
-29 1 -19 25 -43 14 -60 -28 -8 -19 -20 -38 -27 -42 -8 -5 -9 -2 -3 12 13 32
18 64 9 64 -4 0 -16 -7 -26 -17 -17 -15 -18 -15 -18 0 0 24 -16 21 -35 -5
l-16 -23 7 28 c7 29 -12 39 -22 12 -4 -8 -12 -15 -19 -15 -7 0 -15 7 -19 15
-11 29 -36 14 -62 -36 -29 -57 -42 -62 -19 -6 19 45 1 62 -27 27 l-19 -24 6
27 c8 29 -11 39 -21 12 -8 -20 -24 -19 -39 2 -17 23 -39 11 -59 -31 -9 -19
-21 -38 -26 -41 -13 -8 -13 -7 6 48 15 44 18 47 52 48 29 0 33 2 17 8 -11 5
-23 7 -26 5 -4 -2 -9 3 -13 11 -7 19 -22 19 -30 0z m235 -121 c-15 -34 -25
-25 -16 16 5 23 10 29 18 21 7 -7 7 -18 -2 -37z m230 0 c-15 -34 -25 -25 -16
16 5 23 10 29 18 21 7 -7 7 -18 -2 -37z m-401 23 c0 -7 -7 -22 -15 -33 -12
-16 -14 -17 -15 -2 0 23 11 48 21 48 5 0 9 -6 9 -13z m560 -27 c9 -16 8 -20
-5 -20 -8 0 -15 9 -15 20 0 11 2 20 5 20 2 0 9 -9 15 -20z"/>
<path d="M1408 1083 c-40 -4 -53 -23 -17 -23 13 0 19 -5 16 -12 -2 -7 -13 -39
-23 -70 -10 -32 -23 -58 -30 -58 -7 0 -16 -4 -19 -10 -4 -6 13 -10 44 -10 28
0 51 5 51 10 0 6 -7 10 -16 10 -13 0 -15 7 -10 31 10 53 44 119 60 119 9 0 16
5 16 10 0 6 -8 9 -17 8 -10 -1 -35 -3 -55 -5z"/>
</g>
</svg>
